<mxfile host="app.diagrams.net" agent="Mozilla/5.0 (Windows NT 10.0; Win64; x64) AppleWebKit/537.36 (KHTML, like Gecko) Chrome/131.0.0.0 Safari/537.36" version="25.0.1">
  <diagram name="Page-1" id="howEqOjZBWDX22ehPjeI">
    <mxGraphModel dx="1764" dy="1009" grid="1" gridSize="10" guides="1" tooltips="1" connect="1" arrows="1" fold="1" page="1" pageScale="1" pageWidth="850" pageHeight="1100" math="0" shadow="0">
      <root>
        <mxCell id="0" />
        <mxCell id="1" parent="0" />
        <mxCell id="dAg2XJaBtzKmiSdX0UjU-1" style="edgeStyle=orthogonalEdgeStyle;rounded=0;orthogonalLoop=1;jettySize=auto;html=1;entryX=0.5;entryY=0;entryDx=0;entryDy=0;" edge="1" parent="1" source="dAg2XJaBtzKmiSdX0UjU-2" target="dAg2XJaBtzKmiSdX0UjU-4">
          <mxGeometry relative="1" as="geometry" />
        </mxCell>
        <mxCell id="dAg2XJaBtzKmiSdX0UjU-2" value="" style="ellipse;whiteSpace=wrap;html=1;aspect=fixed;fillColor=#1A1A1A;" vertex="1" parent="1">
          <mxGeometry x="380" y="20" width="20" height="20" as="geometry" />
        </mxCell>
        <mxCell id="dAg2XJaBtzKmiSdX0UjU-3" style="edgeStyle=orthogonalEdgeStyle;rounded=0;orthogonalLoop=1;jettySize=auto;html=1;entryX=0.5;entryY=0;entryDx=0;entryDy=0;fontSize=11;" edge="1" parent="1" source="dAg2XJaBtzKmiSdX0UjU-4" target="dAg2XJaBtzKmiSdX0UjU-7">
          <mxGeometry relative="1" as="geometry" />
        </mxCell>
        <mxCell id="dAg2XJaBtzKmiSdX0UjU-4" value="&lt;div&gt;&lt;span style=&quot;background-color: initial;&quot;&gt;Rider access the Delivery dashboard&lt;/span&gt;&lt;/div&gt;" style="rounded=1;whiteSpace=wrap;html=1;align=center;fontSize=11;" vertex="1" parent="1">
          <mxGeometry x="316" y="70" width="150" height="50" as="geometry" />
        </mxCell>
        <mxCell id="dAg2XJaBtzKmiSdX0UjU-5" style="edgeStyle=orthogonalEdgeStyle;rounded=0;orthogonalLoop=1;jettySize=auto;html=1;entryX=0.5;entryY=0;entryDx=0;entryDy=0;fontSize=11;" edge="1" parent="1" source="dAg2XJaBtzKmiSdX0UjU-7" target="dAg2XJaBtzKmiSdX0UjU-9">
          <mxGeometry relative="1" as="geometry" />
        </mxCell>
        <mxCell id="dAg2XJaBtzKmiSdX0UjU-6" style="edgeStyle=orthogonalEdgeStyle;rounded=0;orthogonalLoop=1;jettySize=auto;html=1;entryX=0.5;entryY=0;entryDx=0;entryDy=0;fontSize=11;" edge="1" parent="1" source="dAg2XJaBtzKmiSdX0UjU-7" target="dAg2XJaBtzKmiSdX0UjU-11">
          <mxGeometry relative="1" as="geometry" />
        </mxCell>
        <mxCell id="dAg2XJaBtzKmiSdX0UjU-7" value="" style="rhombus;whiteSpace=wrap;html=1;fontSize=11;" vertex="1" parent="1">
          <mxGeometry x="375" y="150" width="30" height="30" as="geometry" />
        </mxCell>
        <mxCell id="dAg2XJaBtzKmiSdX0UjU-8" style="edgeStyle=orthogonalEdgeStyle;rounded=0;orthogonalLoop=1;jettySize=auto;html=1;entryX=0.5;entryY=0;entryDx=0;entryDy=0;fontSize=11;" edge="1" parent="1" source="dAg2XJaBtzKmiSdX0UjU-9" target="dAg2XJaBtzKmiSdX0UjU-13">
          <mxGeometry relative="1" as="geometry" />
        </mxCell>
        <mxCell id="dAg2XJaBtzKmiSdX0UjU-9" value="System displays the message: &quot;No delivery assigned&quot;" style="rounded=1;whiteSpace=wrap;html=1;fontSize=11;" vertex="1" parent="1">
          <mxGeometry x="480" y="190" width="150" height="50" as="geometry" />
        </mxCell>
        <mxCell id="dAg2XJaBtzKmiSdX0UjU-10" value="" style="edgeStyle=orthogonalEdgeStyle;rounded=0;orthogonalLoop=1;jettySize=auto;html=1;fontSize=11;" edge="1" parent="1" source="dAg2XJaBtzKmiSdX0UjU-11" target="dAg2XJaBtzKmiSdX0UjU-15">
          <mxGeometry relative="1" as="geometry" />
        </mxCell>
        <mxCell id="dAg2XJaBtzKmiSdX0UjU-11" value="System displays the list of assigned deliveries" style="rounded=1;whiteSpace=wrap;html=1;fontSize=11;" vertex="1" parent="1">
          <mxGeometry x="170" y="190" width="150" height="50" as="geometry" />
        </mxCell>
        <mxCell id="dAg2XJaBtzKmiSdX0UjU-12" style="edgeStyle=orthogonalEdgeStyle;rounded=0;orthogonalLoop=1;jettySize=auto;html=1;entryX=1;entryY=0.5;entryDx=0;entryDy=0;exitX=0.5;exitY=1;exitDx=0;exitDy=0;" edge="1" parent="1" source="dAg2XJaBtzKmiSdX0UjU-13" target="dAg2XJaBtzKmiSdX0UjU-39">
          <mxGeometry relative="1" as="geometry">
            <mxPoint x="550" y="840" as="targetPoint" />
            <Array as="points">
              <mxPoint x="550" y="945" />
            </Array>
          </mxGeometry>
        </mxCell>
        <mxCell id="dAg2XJaBtzKmiSdX0UjU-13" value="Rider cannot select any deliveries" style="rounded=1;whiteSpace=wrap;html=1;fontSize=11;" vertex="1" parent="1">
          <mxGeometry x="480" y="265" width="150" height="50" as="geometry" />
        </mxCell>
        <mxCell id="dAg2XJaBtzKmiSdX0UjU-14" value="" style="edgeStyle=orthogonalEdgeStyle;rounded=0;orthogonalLoop=1;jettySize=auto;html=1;fontSize=11;" edge="1" parent="1" source="dAg2XJaBtzKmiSdX0UjU-15" target="dAg2XJaBtzKmiSdX0UjU-17">
          <mxGeometry relative="1" as="geometry" />
        </mxCell>
        <mxCell id="dAg2XJaBtzKmiSdX0UjU-15" value="Rider selects a delivery from the list" style="whiteSpace=wrap;html=1;rounded=1;fontSize=11;" vertex="1" parent="1">
          <mxGeometry x="170" y="260" width="150" height="50" as="geometry" />
        </mxCell>
        <mxCell id="dAg2XJaBtzKmiSdX0UjU-16" style="edgeStyle=orthogonalEdgeStyle;rounded=0;orthogonalLoop=1;jettySize=auto;html=1;exitX=0.5;exitY=1;exitDx=0;exitDy=0;entryX=0.5;entryY=0;entryDx=0;entryDy=0;fontSize=11;" edge="1" parent="1" source="dAg2XJaBtzKmiSdX0UjU-17" target="dAg2XJaBtzKmiSdX0UjU-19">
          <mxGeometry relative="1" as="geometry" />
        </mxCell>
        <mxCell id="dAg2XJaBtzKmiSdX0UjU-17" value="System displays delivery details&amp;nbsp;" style="whiteSpace=wrap;html=1;rounded=1;fontSize=11;" vertex="1" parent="1">
          <mxGeometry x="170" y="330" width="150" height="50" as="geometry" />
        </mxCell>
        <mxCell id="dAg2XJaBtzKmiSdX0UjU-18" style="edgeStyle=orthogonalEdgeStyle;rounded=0;orthogonalLoop=1;jettySize=auto;html=1;exitX=0.5;exitY=1;exitDx=0;exitDy=0;entryX=0.5;entryY=0;entryDx=0;entryDy=0;fontSize=11;" edge="1" parent="1" source="dAg2XJaBtzKmiSdX0UjU-19" target="dAg2XJaBtzKmiSdX0UjU-21">
          <mxGeometry relative="1" as="geometry" />
        </mxCell>
        <mxCell id="dAg2XJaBtzKmiSdX0UjU-19" value="Rider starts the delivery" style="whiteSpace=wrap;html=1;rounded=1;fontSize=11;" vertex="1" parent="1">
          <mxGeometry x="170" y="400" width="150" height="50" as="geometry" />
        </mxCell>
        <mxCell id="dAg2XJaBtzKmiSdX0UjU-20" style="edgeStyle=orthogonalEdgeStyle;rounded=0;orthogonalLoop=1;jettySize=auto;html=1;entryX=0;entryY=0.5;entryDx=0;entryDy=0;" edge="1" parent="1" source="dAg2XJaBtzKmiSdX0UjU-21" target="dAg2XJaBtzKmiSdX0UjU-11">
          <mxGeometry relative="1" as="geometry">
            <Array as="points">
              <mxPoint x="120" y="485" />
              <mxPoint x="120" y="215" />
            </Array>
          </mxGeometry>
        </mxCell>
        <mxCell id="dAg2XJaBtzKmiSdX0UjU-21" value="" style="rhombus;whiteSpace=wrap;html=1;fontSize=11;" vertex="1" parent="1">
          <mxGeometry x="225" y="470" width="30" height="30" as="geometry" />
        </mxCell>
        <mxCell id="dAg2XJaBtzKmiSdX0UjU-22" style="edgeStyle=orthogonalEdgeStyle;rounded=0;orthogonalLoop=1;jettySize=auto;html=1;entryX=0.461;entryY=0.013;entryDx=0;entryDy=0;entryPerimeter=0;fontSize=11;" edge="1" parent="1" source="dAg2XJaBtzKmiSdX0UjU-21" target="dAg2XJaBtzKmiSdX0UjU-24">
          <mxGeometry relative="1" as="geometry" />
        </mxCell>
        <mxCell id="dAg2XJaBtzKmiSdX0UjU-23" style="edgeStyle=orthogonalEdgeStyle;rounded=0;orthogonalLoop=1;jettySize=auto;html=1;entryX=0.5;entryY=0;entryDx=0;entryDy=0;" edge="1" parent="1" source="dAg2XJaBtzKmiSdX0UjU-24" target="dAg2XJaBtzKmiSdX0UjU-27">
          <mxGeometry relative="1" as="geometry" />
        </mxCell>
        <mxCell id="dAg2XJaBtzKmiSdX0UjU-24" value="System prompts the rider to enable location services" style="whiteSpace=wrap;html=1;rounded=1;fontSize=11;" vertex="1" parent="1">
          <mxGeometry x="175" y="520" width="150" height="50" as="geometry" />
        </mxCell>
        <mxCell id="dAg2XJaBtzKmiSdX0UjU-25" style="edgeStyle=orthogonalEdgeStyle;rounded=0;orthogonalLoop=1;jettySize=auto;html=1;entryX=0.5;entryY=0;entryDx=0;entryDy=0;fontSize=11;" edge="1" parent="1" source="dAg2XJaBtzKmiSdX0UjU-27" target="dAg2XJaBtzKmiSdX0UjU-29">
          <mxGeometry relative="1" as="geometry" />
        </mxCell>
        <mxCell id="dAg2XJaBtzKmiSdX0UjU-26" style="edgeStyle=orthogonalEdgeStyle;rounded=0;orthogonalLoop=1;jettySize=auto;html=1;entryX=0.5;entryY=0;entryDx=0;entryDy=0;" edge="1" parent="1" source="dAg2XJaBtzKmiSdX0UjU-27" target="dAg2XJaBtzKmiSdX0UjU-31">
          <mxGeometry relative="1" as="geometry" />
        </mxCell>
        <mxCell id="dAg2XJaBtzKmiSdX0UjU-27" value="" style="rhombus;whiteSpace=wrap;html=1;fontSize=11;" vertex="1" parent="1">
          <mxGeometry x="235" y="590" width="30" height="30" as="geometry" />
        </mxCell>
        <mxCell id="dAg2XJaBtzKmiSdX0UjU-28" style="edgeStyle=orthogonalEdgeStyle;rounded=0;orthogonalLoop=1;jettySize=auto;html=1;entryX=1;entryY=0.5;entryDx=0;entryDy=0;" edge="1" parent="1" source="dAg2XJaBtzKmiSdX0UjU-29" target="dAg2XJaBtzKmiSdX0UjU-37">
          <mxGeometry relative="1" as="geometry">
            <Array as="points">
              <mxPoint x="395" y="875" />
            </Array>
          </mxGeometry>
        </mxCell>
        <mxCell id="dAg2XJaBtzKmiSdX0UjU-29" value="System does not start the route" style="rounded=1;whiteSpace=wrap;html=1;fontSize=11;" vertex="1" parent="1">
          <mxGeometry x="325" y="630" width="150" height="50" as="geometry" />
        </mxCell>
        <mxCell id="dAg2XJaBtzKmiSdX0UjU-30" value="" style="edgeStyle=orthogonalEdgeStyle;rounded=0;orthogonalLoop=1;jettySize=auto;html=1;fontSize=11;" edge="1" parent="1" source="dAg2XJaBtzKmiSdX0UjU-31" target="dAg2XJaBtzKmiSdX0UjU-33">
          <mxGeometry relative="1" as="geometry" />
        </mxCell>
        <mxCell id="dAg2XJaBtzKmiSdX0UjU-31" value="&lt;font style=&quot;font-size: 11px;&quot;&gt;System integrate with google maps API&lt;/font&gt;" style="rounded=1;whiteSpace=wrap;html=1;" vertex="1" parent="1">
          <mxGeometry x="15" y="630" width="150" height="50" as="geometry" />
        </mxCell>
        <mxCell id="dAg2XJaBtzKmiSdX0UjU-32" value="" style="edgeStyle=orthogonalEdgeStyle;rounded=0;orthogonalLoop=1;jettySize=auto;html=1;fontSize=11;" edge="1" parent="1" source="dAg2XJaBtzKmiSdX0UjU-33" target="dAg2XJaBtzKmiSdX0UjU-35">
          <mxGeometry relative="1" as="geometry" />
        </mxCell>
        <mxCell id="dAg2XJaBtzKmiSdX0UjU-33" value="&lt;font style=&quot;font-size: 11px;&quot;&gt;System provides an optimized route to the&amp;nbsp;&lt;/font&gt;&lt;span style=&quot;font-size: 11px; background-color: initial;&quot;&gt;delivery location&lt;/span&gt;" style="whiteSpace=wrap;html=1;rounded=1;" vertex="1" parent="1">
          <mxGeometry x="15" y="700" width="150" height="50" as="geometry" />
        </mxCell>
        <mxCell id="dAg2XJaBtzKmiSdX0UjU-34" style="edgeStyle=orthogonalEdgeStyle;rounded=0;orthogonalLoop=1;jettySize=auto;html=1;entryX=0;entryY=0.5;entryDx=0;entryDy=0;exitX=0.5;exitY=1;exitDx=0;exitDy=0;" edge="1" parent="1" source="dAg2XJaBtzKmiSdX0UjU-35" target="dAg2XJaBtzKmiSdX0UjU-37">
          <mxGeometry relative="1" as="geometry" />
        </mxCell>
        <mxCell id="dAg2XJaBtzKmiSdX0UjU-35" value="&lt;font style=&quot;font-size: 11px;&quot;&gt;System initiates navigation with turn-by-turn directions&lt;/font&gt;" style="whiteSpace=wrap;html=1;rounded=1;" vertex="1" parent="1">
          <mxGeometry x="15" y="770" width="150" height="50" as="geometry" />
        </mxCell>
        <mxCell id="dAg2XJaBtzKmiSdX0UjU-36" style="edgeStyle=orthogonalEdgeStyle;rounded=0;orthogonalLoop=1;jettySize=auto;html=1;entryX=0;entryY=0.5;entryDx=0;entryDy=0;" edge="1" parent="1" source="dAg2XJaBtzKmiSdX0UjU-37" target="dAg2XJaBtzKmiSdX0UjU-39">
          <mxGeometry relative="1" as="geometry">
            <Array as="points">
              <mxPoint x="245" y="945" />
            </Array>
          </mxGeometry>
        </mxCell>
        <mxCell id="dAg2XJaBtzKmiSdX0UjU-37" value="" style="rhombus;whiteSpace=wrap;html=1;" vertex="1" parent="1">
          <mxGeometry x="230" y="860" width="30" height="30" as="geometry" />
        </mxCell>
        <mxCell id="dAg2XJaBtzKmiSdX0UjU-38" value="" style="edgeStyle=orthogonalEdgeStyle;rounded=0;orthogonalLoop=1;jettySize=auto;html=1;" edge="1" parent="1" source="dAg2XJaBtzKmiSdX0UjU-39" target="dAg2XJaBtzKmiSdX0UjU-40">
          <mxGeometry relative="1" as="geometry">
            <Array as="points">
              <mxPoint x="395" y="1005" />
            </Array>
          </mxGeometry>
        </mxCell>
        <mxCell id="dAg2XJaBtzKmiSdX0UjU-39" value="" style="rhombus;whiteSpace=wrap;html=1;" vertex="1" parent="1">
          <mxGeometry x="380" y="930" width="30" height="30" as="geometry" />
        </mxCell>
        <mxCell id="dAg2XJaBtzKmiSdX0UjU-40" value="" style="ellipse;whiteSpace=wrap;html=1;" vertex="1" parent="1">
          <mxGeometry x="380" y="1000" width="30" height="30" as="geometry" />
        </mxCell>
        <mxCell id="dAg2XJaBtzKmiSdX0UjU-41" value="" style="ellipse;whiteSpace=wrap;html=1;aspect=fixed;fillColor=#000000;" vertex="1" parent="1">
          <mxGeometry x="385" y="1005" width="20" height="20" as="geometry" />
        </mxCell>
        <mxCell id="dAg2XJaBtzKmiSdX0UjU-42" value="Are deliveries assigned?" style="text;html=1;align=center;verticalAlign=middle;resizable=0;points=[];autosize=1;strokeColor=none;fillColor=none;fontSize=10;" vertex="1" parent="1">
          <mxGeometry x="245" y="130" width="130" height="30" as="geometry" />
        </mxCell>
        <mxCell id="dAg2XJaBtzKmiSdX0UjU-43" value="Yes" style="text;html=1;align=center;verticalAlign=middle;resizable=0;points=[];autosize=1;strokeColor=none;fillColor=none;" vertex="1" parent="1">
          <mxGeometry x="195" y="160" width="40" height="30" as="geometry" />
        </mxCell>
        <mxCell id="dAg2XJaBtzKmiSdX0UjU-44" value="No" style="text;html=1;align=center;verticalAlign=middle;resizable=0;points=[];autosize=1;strokeColor=none;fillColor=none;fontSize=11;" vertex="1" parent="1">
          <mxGeometry x="550" y="160" width="40" height="30" as="geometry" />
        </mxCell>
        <mxCell id="dAg2XJaBtzKmiSdX0UjU-45" value="Yes" style="text;html=1;align=center;verticalAlign=middle;resizable=0;points=[];autosize=1;strokeColor=none;fillColor=none;fontSize=11;" vertex="1" parent="1">
          <mxGeometry x="250" y="490" width="40" height="30" as="geometry" />
        </mxCell>
        <mxCell id="dAg2XJaBtzKmiSdX0UjU-46" value="No" style="text;html=1;align=center;verticalAlign=middle;resizable=0;points=[];autosize=1;strokeColor=none;fillColor=none;fontSize=11;" vertex="1" parent="1">
          <mxGeometry x="195" y="460" width="40" height="30" as="geometry" />
        </mxCell>
        <mxCell id="dAg2XJaBtzKmiSdX0UjU-47" value="Are locations service enabled?" style="text;html=1;align=center;verticalAlign=middle;resizable=0;points=[];autosize=1;strokeColor=none;fillColor=none;fontSize=10;" vertex="1" parent="1">
          <mxGeometry x="80" y="570" width="160" height="30" as="geometry" />
        </mxCell>
        <mxCell id="dAg2XJaBtzKmiSdX0UjU-48" value="Yes" style="text;html=1;align=center;verticalAlign=middle;resizable=0;points=[];autosize=1;strokeColor=none;fillColor=none;fontSize=11;" vertex="1" parent="1">
          <mxGeometry x="40" y="600" width="40" height="30" as="geometry" />
        </mxCell>
        <mxCell id="dAg2XJaBtzKmiSdX0UjU-49" value="No" style="text;html=1;align=center;verticalAlign=middle;resizable=0;points=[];autosize=1;strokeColor=none;fillColor=none;fontSize=11;" vertex="1" parent="1">
          <mxGeometry x="390" y="600" width="40" height="30" as="geometry" />
        </mxCell>
      </root>
    </mxGraphModel>
  </diagram>
</mxfile>
